<svg width="442" height="239" viewBox="0 0 442 239" fill="none" xmlns="http://www.w3.org/2000/svg">
<path d="M318.5 85.2498C331.479 85.2498 342 74.8404 342 61.9998C342 49.1591 331.479 38.7498 318.5 38.7498C305.521 38.7498 295 49.1591 295 61.9998C295 74.8404 305.521 85.2498 318.5 85.2498Z" fill="#FF7A00"/>
<path d="M318.5 54.2495C331.479 54.2495 342 43.8402 342 30.9996C342 18.159 331.479 7.74963 318.5 7.74963C305.521 7.74963 295 18.159 295 30.9996C295 43.8402 305.521 54.2495 318.5 54.2495Z" fill="#FF7A00"/>
<path d="M83.5 85.2498C96.4787 85.2498 107 74.8404 107 61.9998C107 49.1591 96.4787 38.7498 83.5 38.7498C70.5213 38.7498 60 49.1591 60 61.9998C60 74.8404 70.5213 85.2498 83.5 85.2498Z" fill="#FF7A00"/>
<path d="M83.5 54.2495C96.4787 54.2495 107 43.8402 107 30.9996C107 18.159 96.4787 7.74963 83.5 7.74963C70.5213 7.74963 60 18.159 60 30.9996C60 43.8402 70.5213 54.2495 83.5 54.2495Z" fill="#FF7A00"/>
<path d="M342 139.5C342 216.543 278.871 279 201 279C123.129 279 60 216.543 60 139.5C60 62.4572 123.129 0 201 0C278.871 0 342 62.4572 342 139.5Z" fill="#FFF7E7"/>
<path d="M298.917 54.2501C309.732 54.2501 318.5 45.5756 318.5 34.8751C318.5 24.1746 309.732 15.5001 298.917 15.5001C288.101 15.5001 279.333 24.1746 279.333 34.8751C279.333 45.5756 288.101 54.2501 298.917 54.2501Z" fill="#FF7A00"/>
<path d="M310.667 69.7499C319.319 69.7499 326.333 62.8103 326.333 54.2498C326.333 45.6894 319.319 38.7498 310.667 38.7498C302.014 38.7498 295 45.6894 295 54.2498C295 62.8103 302.014 69.7499 310.667 69.7499Z" fill="#FF7A00"/>
<path d="M103.083 54.2501C113.899 54.2501 122.667 45.5756 122.667 34.8751C122.667 24.1746 113.899 15.5001 103.083 15.5001C92.2678 15.5001 83.5 24.1746 83.5 34.8751C83.5 45.5756 92.2678 54.2501 103.083 54.2501Z" fill="#FF7A00"/>
<path d="M91.3333 69.7499C99.9858 69.7499 107 62.8103 107 54.2498C107 45.6894 99.9858 38.7498 91.3333 38.7498C82.6809 38.7498 75.6667 45.6894 75.6667 54.2498C75.6667 62.8103 82.6809 69.7499 91.3333 69.7499Z" fill="#FF7A00"/>
<path d="M114.285 193.75C131.59 193.75 145.618 179.871 145.618 162.75C145.618 145.63 131.59 131.75 114.285 131.75C96.98 131.75 82.9516 145.63 82.9516 162.75C82.9516 179.871 96.98 193.75 114.285 193.75Z" fill="#FF7892"/>
<path d="M286.618 193.75C303.923 193.75 317.952 179.871 317.952 162.75C317.952 145.63 303.923 131.75 286.618 131.75C269.313 131.75 255.285 145.63 255.285 162.75C255.285 179.871 269.313 193.75 286.618 193.75Z" fill="#FF7892"/>
<path d="M274.124 183.124C272.73 181.877 270.646 181.799 269.15 182.9C268.845 183.124 238.428 205.375 201 205.375C163.667 205.375 133.148 183.124 132.85 182.9C131.354 181.799 129.27 181.892 127.876 183.124C126.49 184.364 126.176 186.41 127.14 187.991C128.15 189.658 152.34 240.25 201 240.25C249.661 240.25 273.858 189.658 274.861 187.991C275.824 186.403 275.519 184.364 274.124 183.124Z" fill="#DA2F47"/>
<path fill-rule="evenodd" clip-rule="evenodd" d="M150.083 116.25C160.899 116.25 169.667 104.106 169.667 89.1254L137.253 68.6324C133.116 73.6058 130.5 80.9424 130.5 89.1254C130.5 104.106 139.268 116.25 150.083 116.25Z" fill="#C68F1D"/>
<path fill-rule="evenodd" clip-rule="evenodd" d="M260.29 116.25C249.475 116.25 240.707 104.106 240.707 89.1254L273.121 68.6324C277.257 73.6058 279.874 80.9424 279.874 89.1254C279.874 104.106 271.106 116.25 260.29 116.25Z" fill="#C68F1D"/>
<path d="M204.917 178.25C220.058 178.25 232.333 166.106 232.333 151.125C232.333 136.144 220.058 124 204.917 124C189.775 124 177.5 136.144 177.5 151.125C177.5 166.106 189.775 178.25 204.917 178.25Z" fill="#BB1A34"/>
<g filter="url(#filter0_d)">
<rect x="60" y="5" width="282" height="35" fill="#C4C4C4"/>
</g>
<defs>
<filter id="filter0_d" x="-40" y="-91" width="482" height="235" filterUnits="userSpaceOnUse" color-interpolation-filters="sRGB">
<feFlood flood-opacity="0" result="BackgroundImageFix"/>
<feColorMatrix in="SourceAlpha" type="matrix" values="0 0 0 0 0 0 0 0 0 0 0 0 0 0 0 0 0 0 127 0"/>
<feOffset dy="4"/>
<feGaussianBlur stdDeviation="50"/>
<feColorMatrix type="matrix" values="0 0 0 0 0 0 0 0 0 0 0 0 0 0 0 0 0 0 1 0"/>
<feBlend mode="normal" in2="BackgroundImageFix" result="effect1_dropShadow"/>
<feBlend mode="normal" in="SourceGraphic" in2="effect1_dropShadow" result="shape"/>
</filter>
</defs>
</svg>
