<svg width="278" height="174" viewBox="0 0 278 174" fill="none" xmlns="http://www.w3.org/2000/svg">
<path d="M164.833 64.764C172.105 64.764 178 58.9318 178 51.7374C178 44.543 172.105 38.7108 164.833 38.7108C157.562 38.7108 151.667 44.543 151.667 51.7374C151.667 58.9318 157.562 64.764 164.833 64.764Z" fill="#FF7A00"/>
<path d="M164.833 47.3952C172.105 47.3952 178 41.563 178 34.3686C178 27.1742 172.105 21.342 164.833 21.342C157.562 21.342 151.667 27.1742 151.667 34.3686C151.667 41.563 157.562 47.3952 164.833 47.3952Z" fill="#FF7A00"/>
<path d="M33.1667 64.764C40.4384 64.764 46.3333 58.9318 46.3333 51.7374C46.3333 44.543 40.4384 38.7108 33.1667 38.7108C25.8949 38.7108 20 44.543 20 51.7374C20 58.9318 25.8949 64.764 33.1667 64.764Z" fill="#FF7A00"/>
<path d="M33.1667 47.3952C40.4384 47.3952 46.3333 41.563 46.3333 34.3686C46.3333 27.1742 40.4384 21.342 33.1667 21.342C25.8949 21.342 20 27.1742 20 34.3686C20 41.563 25.8949 47.3952 33.1667 47.3952Z" fill="#FF7A00"/>
<path d="M178 95.1596C178 138.325 142.63 173.319 99 173.319C55.3701 173.319 20 138.325 20 95.1596C20 51.9938 55.3701 17 99 17C142.63 17 178 51.9938 178 95.1596Z" fill="#FFF7E7"/>
<path d="M153.861 47.3954C159.921 47.3954 164.833 42.5352 164.833 36.5399C164.833 30.5446 159.921 25.6844 153.861 25.6844C147.801 25.6844 142.889 30.5446 142.889 36.5399C142.889 42.5352 147.801 47.3954 153.861 47.3954Z" fill="#FF7A00"/>
<path d="M160.444 56.0797C165.292 56.0797 169.222 52.1915 169.222 47.3952C169.222 42.599 165.292 38.7108 160.444 38.7108C155.597 38.7108 151.667 42.599 151.667 47.3952C151.667 52.1915 155.597 56.0797 160.444 56.0797Z" fill="#FF7A00"/>
<path d="M44.1388 47.3954C50.1986 47.3954 55.1111 42.5352 55.1111 36.5399C55.1111 30.5446 50.1986 25.6844 44.1388 25.6844C38.0791 25.6844 33.1666 30.5446 33.1666 36.5399C33.1666 42.5352 38.0791 47.3954 44.1388 47.3954Z" fill="#FF7A00"/>
<path d="M37.5555 56.0797C42.4033 56.0797 46.3333 52.1915 46.3333 47.3952C46.3333 42.599 42.4033 38.7108 37.5555 38.7108C32.7077 38.7108 28.7777 42.599 28.7777 47.3952C28.7777 52.1915 32.7077 56.0797 37.5555 56.0797Z" fill="#FF7A00"/>
<path d="M50.4149 125.555C60.1106 125.555 67.9705 117.779 67.9705 108.186C67.9705 98.5939 60.1106 90.8176 50.4149 90.8176C40.7193 90.8176 32.8594 98.5939 32.8594 108.186C32.8594 117.779 40.7193 125.555 50.4149 125.555Z" fill="#FF7892"/>
<path d="M146.97 125.555C156.666 125.555 164.526 117.779 164.526 108.186C164.526 98.5939 156.666 90.8176 146.97 90.8176C137.275 90.8176 129.415 98.5939 129.415 108.186C129.415 117.779 137.275 125.555 146.97 125.555Z" fill="#FF7892"/>
<path d="M139.97 119.602C139.189 118.903 138.022 118.859 137.183 119.476C137.012 119.602 119.97 132.068 99.0001 132.068C78.0826 132.068 60.9835 119.602 60.8167 119.476C59.9785 118.859 58.811 118.911 58.0298 119.602C57.253 120.296 57.0774 121.443 57.6172 122.329C58.1834 123.262 71.7363 151.608 99.0001 151.608C126.264 151.608 139.821 123.262 140.383 122.329C140.923 121.438 140.752 120.296 139.97 119.602Z" fill="#DA2F47"/>
<path fill-rule="evenodd" clip-rule="evenodd" d="M70.4722 82.1332C76.532 82.1332 81.4444 75.3289 81.4444 66.9355L63.2835 55.4536C60.9657 58.2401 59.5 62.3507 59.5 66.9355C59.5 75.3289 64.4124 82.1332 70.4722 82.1332Z" fill="#C68F1D"/>
<path fill-rule="evenodd" clip-rule="evenodd" d="M132.219 82.1332C126.16 82.1332 121.247 75.3289 121.247 66.9355L139.408 55.4536C141.726 58.2401 143.192 62.3507 143.192 66.9355C143.192 75.3289 138.279 82.1332 132.219 82.1332Z" fill="#C68F1D"/>
<path d="M101.194 116.87C109.678 116.87 116.556 110.066 116.556 101.673C116.556 93.2793 109.678 86.4751 101.194 86.4751C92.7108 86.4751 85.8334 93.2793 85.8334 101.673C85.8334 110.066 92.7108 116.87 101.194 116.87Z" fill="#BB1A34"/>
<g filter="url(#filter0_d)">
<rect x="20" y="19.8014" width="158" height="19.6099" fill="#C4C4C4"/>
</g>
<defs>
<filter id="filter0_d" x="-80" y="-76.1986" width="358" height="219.61" filterUnits="userSpaceOnUse" color-interpolation-filters="sRGB">
<feFlood flood-opacity="0" result="BackgroundImageFix"/>
<feColorMatrix in="SourceAlpha" type="matrix" values="0 0 0 0 0 0 0 0 0 0 0 0 0 0 0 0 0 0 127 0"/>
<feOffset dy="4"/>
<feGaussianBlur stdDeviation="50"/>
<feColorMatrix type="matrix" values="0 0 0 0 0 0 0 0 0 0 0 0 0 0 0 0 0 0 1 0"/>
<feBlend mode="normal" in2="BackgroundImageFix" result="effect1_dropShadow"/>
<feBlend mode="normal" in="SourceGraphic" in2="effect1_dropShadow" result="shape"/>
</filter>
</defs>
</svg>
